<svg width="59" height="43" viewBox="0 0 59 43" fill="none" xmlns="http://www.w3.org/2000/svg">
<path d="M7 4C7 2.34315 8.34315 1 10 1H49C50.6569 1 52 2.34315 52 4V39.0107C52 41.0075 50.0857 42.447 48.1674 41.8928L30.3326 36.7405C29.7887 36.5834 29.2113 36.5834 28.6674 36.7405L10.8326 41.8928C8.91426 42.447 7 41.0075 7 39.0107V4Z" fill="#9500DB"/>
<path d="M13.6678 29.49V33H12.8128V30.895L12.0278 33H11.3378L10.5478 30.89V33H9.69281V29.49H10.7028L11.6878 31.92L12.6628 29.49H13.6678ZM14.1127 31.6C14.1127 31.3133 14.166 31.0617 14.2727 30.845C14.3827 30.6283 14.531 30.4617 14.7177 30.345C14.9043 30.2283 15.1127 30.17 15.3427 30.17C15.5393 30.17 15.711 30.21 15.8577 30.29C16.0077 30.37 16.1227 30.475 16.2027 30.605V30.21H17.0577V33H16.2027V32.605C16.1193 32.735 16.0027 32.84 15.8527 32.92C15.706 33 15.5343 33.04 15.3377 33.04C15.111 33.04 14.9043 32.9817 14.7177 32.865C14.531 32.745 14.3827 32.5767 14.2727 32.36C14.166 32.14 14.1127 31.8867 14.1127 31.6ZM16.2027 31.605C16.2027 31.3917 16.1427 31.2233 16.0227 31.1C15.906 30.9767 15.7627 30.915 15.5927 30.915C15.4227 30.915 15.2777 30.9767 15.1577 31.1C15.041 31.22 14.9827 31.3867 14.9827 31.6C14.9827 31.8133 15.041 31.9833 15.1577 32.11C15.2777 32.2333 15.4227 32.295 15.5927 32.295C15.7627 32.295 15.906 32.2333 16.0227 32.11C16.1427 31.9867 16.2027 31.8183 16.2027 31.605ZM18.8112 33.04C18.5679 33.04 18.3512 32.9983 18.1612 32.915C17.9712 32.8317 17.8212 32.7183 17.7112 32.575C17.6012 32.4283 17.5395 32.265 17.5262 32.085H18.3712C18.3812 32.1817 18.4262 32.26 18.5062 32.32C18.5862 32.38 18.6845 32.41 18.8012 32.41C18.9079 32.41 18.9895 32.39 19.0462 32.35C19.1062 32.3067 19.1362 32.2517 19.1362 32.185C19.1362 32.105 19.0945 32.0467 19.0112 32.01C18.9279 31.97 18.7929 31.9267 18.6062 31.88C18.4062 31.8333 18.2395 31.785 18.1062 31.735C17.9729 31.6817 17.8579 31.6 17.7612 31.49C17.6645 31.3767 17.6162 31.225 17.6162 31.035C17.6162 30.875 17.6595 30.73 17.7462 30.6C17.8362 30.4667 17.9662 30.3617 18.1362 30.285C18.3095 30.2083 18.5145 30.17 18.7512 30.17C19.1012 30.17 19.3762 30.2567 19.5762 30.43C19.7795 30.6033 19.8962 30.8333 19.9262 31.12H19.1362C19.1229 31.0233 19.0795 30.9467 19.0062 30.89C18.9362 30.8333 18.8429 30.805 18.7262 30.805C18.6262 30.805 18.5495 30.825 18.4962 30.865C18.4429 30.9017 18.4162 30.9533 18.4162 31.02C18.4162 31.1 18.4579 31.16 18.5412 31.2C18.6279 31.24 18.7612 31.28 18.9412 31.32C19.1479 31.3733 19.3162 31.4267 19.4462 31.48C19.5762 31.53 19.6895 31.6133 19.7862 31.73C19.8862 31.8433 19.9379 31.9967 19.9412 32.19C19.9412 32.3533 19.8945 32.5 19.8012 32.63C19.7112 32.7567 19.5795 32.8567 19.4062 32.93C19.2362 33.0033 19.0379 33.04 18.8112 33.04ZM22.0193 32.275V33H21.5843C21.2743 33 21.0326 32.925 20.8593 32.775C20.686 32.6217 20.5993 32.3733 20.5993 32.03V30.92H20.2593V30.21H20.5993V29.53H21.4543V30.21H22.0143V30.92H21.4543V32.04C21.4543 32.1233 21.4743 32.1833 21.5143 32.22C21.5543 32.2567 21.621 32.275 21.7143 32.275H22.0193ZM25.1255 31.56C25.1255 31.64 25.1205 31.7233 25.1105 31.81H23.1755C23.1889 31.9833 23.2439 32.1167 23.3405 32.21C23.4405 32.3 23.5622 32.345 23.7055 32.345C23.9189 32.345 24.0672 32.255 24.1505 32.075H25.0605C25.0139 32.2583 24.9289 32.4233 24.8055 32.57C24.6855 32.7167 24.5339 32.8317 24.3505 32.915C24.1672 32.9983 23.9622 33.04 23.7355 33.04C23.4622 33.04 23.2189 32.9817 23.0055 32.865C22.7922 32.7483 22.6255 32.5817 22.5055 32.365C22.3855 32.1483 22.3255 31.895 22.3255 31.605C22.3255 31.315 22.3839 31.0617 22.5005 30.845C22.6205 30.6283 22.7872 30.4617 23.0005 30.345C23.2139 30.2283 23.4589 30.17 23.7355 30.17C24.0055 30.17 24.2455 30.2267 24.4555 30.34C24.6655 30.4533 24.8289 30.615 24.9455 30.825C25.0655 31.035 25.1255 31.28 25.1255 31.56ZM24.2505 31.335C24.2505 31.1883 24.2005 31.0717 24.1005 30.985C24.0005 30.8983 23.8755 30.855 23.7255 30.855C23.5822 30.855 23.4605 30.8967 23.3605 30.98C23.2639 31.0633 23.2039 31.1817 23.1805 31.335H24.2505ZM26.4316 30.675C26.5316 30.5217 26.6566 30.4017 26.8066 30.315C26.9566 30.225 27.1233 30.18 27.3066 30.18V31.085H27.0716C26.8583 31.085 26.6983 31.1317 26.5916 31.225C26.4849 31.315 26.4316 31.475 26.4316 31.705V33H25.5766V30.21H26.4316V30.675ZM28.8503 33.04C28.6069 33.04 28.3903 32.9983 28.2003 32.915C28.0103 32.8317 27.8603 32.7183 27.7503 32.575C27.6403 32.4283 27.5786 32.265 27.5653 32.085H28.4103C28.4203 32.1817 28.4653 32.26 28.5453 32.32C28.6253 32.38 28.7236 32.41 28.8403 32.41C28.9469 32.41 29.0286 32.39 29.0853 32.35C29.1453 32.3067 29.1753 32.2517 29.1753 32.185C29.1753 32.105 29.1336 32.0467 29.0503 32.01C28.9669 31.97 28.8319 31.9267 28.6453 31.88C28.4453 31.8333 28.2786 31.785 28.1453 31.735C28.0119 31.6817 27.8969 31.6 27.8003 31.49C27.7036 31.3767 27.6553 31.225 27.6553 31.035C27.6553 30.875 27.6986 30.73 27.7853 30.6C27.8753 30.4667 28.0053 30.3617 28.1753 30.285C28.3486 30.2083 28.5536 30.17 28.7903 30.17C29.1403 30.17 29.4153 30.2567 29.6153 30.43C29.8186 30.6033 29.9353 30.8333 29.9653 31.12H29.1753C29.1619 31.0233 29.1186 30.9467 29.0453 30.89C28.9753 30.8333 28.8819 30.805 28.7653 30.805C28.6653 30.805 28.5886 30.825 28.5353 30.865C28.4819 30.9017 28.4553 30.9533 28.4553 31.02C28.4553 31.1 28.4969 31.16 28.5803 31.2C28.6669 31.24 28.8003 31.28 28.9803 31.32C29.1869 31.3733 29.3553 31.4267 29.4853 31.48C29.6153 31.53 29.7286 31.6133 29.8253 31.73C29.9253 31.8433 29.9769 31.9967 29.9803 32.19C29.9803 32.3533 29.9336 32.5 29.8403 32.63C29.7503 32.7567 29.6186 32.8567 29.4453 32.93C29.2753 33.0033 29.0769 33.04 28.8503 33.04ZM33.8929 30.6C33.8296 30.4833 33.7379 30.395 33.6179 30.335C33.5013 30.2717 33.3629 30.24 33.2029 30.24C32.9263 30.24 32.7046 30.3317 32.5379 30.515C32.3713 30.695 32.2879 30.9367 32.2879 31.24C32.2879 31.5633 32.3746 31.8167 32.5479 32C32.7246 32.18 32.9663 32.27 33.2729 32.27C33.4829 32.27 33.6596 32.2167 33.8029 32.11C33.9496 32.0033 34.0563 31.85 34.1229 31.65H33.0379V31.02H34.8979V31.815C34.8346 32.0283 34.7263 32.2267 34.5729 32.41C34.4229 32.5933 34.2313 32.7417 33.9979 32.855C33.7646 32.9683 33.5013 33.025 33.2079 33.025C32.8613 33.025 32.5513 32.95 32.2779 32.8C32.0079 32.6467 31.7963 32.435 31.6429 32.165C31.4929 31.895 31.4179 31.5867 31.4179 31.24C31.4179 30.8933 31.4929 30.585 31.6429 30.315C31.7963 30.0417 32.0079 29.83 32.2779 29.68C32.5479 29.5267 32.8563 29.45 33.2029 29.45C33.6229 29.45 33.9763 29.5517 34.2629 29.755C34.5529 29.9583 34.7446 30.24 34.8379 30.6H33.8929ZM35.2015 31.6C35.2015 31.3133 35.2549 31.0617 35.3615 30.845C35.4715 30.6283 35.6199 30.4617 35.8065 30.345C35.9932 30.2283 36.2015 30.17 36.4315 30.17C36.6282 30.17 36.7999 30.21 36.9465 30.29C37.0965 30.37 37.2115 30.475 37.2915 30.605V30.21H38.1465V33H37.2915V32.605C37.2082 32.735 37.0915 32.84 36.9415 32.92C36.7949 33 36.6232 33.04 36.4265 33.04C36.1999 33.04 35.9932 32.9817 35.8065 32.865C35.6199 32.745 35.4715 32.5767 35.3615 32.36C35.2549 32.14 35.2015 31.8867 35.2015 31.6ZM37.2915 31.605C37.2915 31.3917 37.2315 31.2233 37.1115 31.1C36.9949 30.9767 36.8515 30.915 36.6815 30.915C36.5115 30.915 36.3665 30.9767 36.2465 31.1C36.1299 31.22 36.0715 31.3867 36.0715 31.6C36.0715 31.8133 36.1299 31.9833 36.2465 32.11C36.3665 32.2333 36.5115 32.295 36.6815 32.295C36.8515 32.295 36.9949 32.2333 37.1115 32.11C37.2315 31.9867 37.2915 31.8183 37.2915 31.605ZM42.3251 30.18C42.6717 30.18 42.9467 30.285 43.1501 30.495C43.3567 30.705 43.4601 30.9967 43.4601 31.37V33H42.6101V31.485C42.6101 31.305 42.5617 31.1667 42.4651 31.07C42.3717 30.97 42.2417 30.92 42.0751 30.92C41.9084 30.92 41.7767 30.97 41.6801 31.07C41.5867 31.1667 41.5401 31.305 41.5401 31.485V33H40.6901V31.485C40.6901 31.305 40.6417 31.1667 40.5451 31.07C40.4517 30.97 40.3217 30.92 40.1551 30.92C39.9884 30.92 39.8567 30.97 39.7601 31.07C39.6667 31.1667 39.6201 31.305 39.6201 31.485V33H38.7651V30.21H39.6201V30.56C39.7067 30.4433 39.8201 30.3517 39.9601 30.285C40.1001 30.215 40.2584 30.18 40.4351 30.18C40.6451 30.18 40.8317 30.225 40.9951 30.315C41.1617 30.405 41.2917 30.5333 41.3851 30.7C41.4817 30.5467 41.6134 30.4217 41.7801 30.325C41.9467 30.2283 42.1284 30.18 42.3251 30.18ZM46.688 31.56C46.688 31.64 46.683 31.7233 46.673 31.81H44.738C44.7514 31.9833 44.8064 32.1167 44.903 32.21C45.003 32.3 45.1247 32.345 45.268 32.345C45.4814 32.345 45.6297 32.255 45.713 32.075H46.623C46.5764 32.2583 46.4914 32.4233 46.368 32.57C46.248 32.7167 46.0964 32.8317 45.913 32.915C45.7297 32.9983 45.5247 33.04 45.298 33.04C45.0247 33.04 44.7814 32.9817 44.568 32.865C44.3547 32.7483 44.188 32.5817 44.068 32.365C43.948 32.1483 43.888 31.895 43.888 31.605C43.888 31.315 43.9464 31.0617 44.063 30.845C44.183 30.6283 44.3497 30.4617 44.563 30.345C44.7764 30.2283 45.0214 30.17 45.298 30.17C45.568 30.17 45.808 30.2267 46.018 30.34C46.228 30.4533 46.3914 30.615 46.508 30.825C46.628 31.035 46.688 31.28 46.688 31.56ZM45.813 31.335C45.813 31.1883 45.763 31.0717 45.663 30.985C45.563 30.8983 45.438 30.855 45.288 30.855C45.1447 30.855 45.023 30.8967 44.923 30.98C44.8264 31.0633 44.7664 31.1817 44.743 31.335H45.813ZM48.2741 33.04C48.0308 33.04 47.8141 32.9983 47.6241 32.915C47.4341 32.8317 47.2841 32.7183 47.1741 32.575C47.0641 32.4283 47.0024 32.265 46.9891 32.085H47.8341C47.8441 32.1817 47.8891 32.26 47.9691 32.32C48.0491 32.38 48.1474 32.41 48.2641 32.41C48.3708 32.41 48.4524 32.39 48.5091 32.35C48.5691 32.3067 48.5991 32.2517 48.5991 32.185C48.5991 32.105 48.5574 32.0467 48.4741 32.01C48.3908 31.97 48.2558 31.9267 48.0691 31.88C47.8691 31.8333 47.7024 31.785 47.5691 31.735C47.4358 31.6817 47.3208 31.6 47.2241 31.49C47.1274 31.3767 47.0791 31.225 47.0791 31.035C47.0791 30.875 47.1224 30.73 47.2091 30.6C47.2991 30.4667 47.4291 30.3617 47.5991 30.285C47.7724 30.2083 47.9774 30.17 48.2141 30.17C48.5641 30.17 48.8391 30.2567 49.0391 30.43C49.2424 30.6033 49.3591 30.8333 49.3891 31.12H48.5991C48.5858 31.0233 48.5424 30.9467 48.4691 30.89C48.3991 30.8333 48.3058 30.805 48.1891 30.805C48.0891 30.805 48.0124 30.825 47.9591 30.865C47.9058 30.9017 47.8791 30.9533 47.8791 31.02C47.8791 31.1 47.9208 31.16 48.0041 31.2C48.0908 31.24 48.2241 31.28 48.4041 31.32C48.6108 31.3733 48.7791 31.4267 48.9091 31.48C49.0391 31.53 49.1524 31.6133 49.2491 31.73C49.3491 31.8433 49.4008 31.9967 49.4041 32.19C49.4041 32.3533 49.3574 32.5 49.2641 32.63C49.1741 32.7567 49.0424 32.8567 48.8691 32.93C48.6991 33.0033 48.5008 33.04 48.2741 33.04Z" fill="white"/>
<path d="M35.9987 14.8313H23.004C22.1262 14.8311 21.264 15.1094 20.5048 15.6381C19.7456 16.1668 19.1164 16.9269 18.681 17.8415C18.2456 18.7561 18.0194 19.7926 18.0255 20.8459C18.0316 21.8992 18.2696 22.9318 18.7155 23.8391C19.1614 24.7464 19.7993 25.496 20.5646 26.012C21.3298 26.5281 22.1951 26.7921 23.0728 26.7774C23.9504 26.7626 24.8093 26.4697 25.5622 25.9282C26.3151 25.3867 26.9352 24.6159 27.3598 23.694H31.6401C32.0646 24.6158 32.6847 25.3865 33.4375 25.928C34.1903 26.4694 35.0489 26.7625 35.9265 26.7773C36.8041 26.7922 37.6693 26.5284 38.4345 26.0126C39.1997 25.4969 39.8377 24.7475 40.2837 23.8405C40.7298 22.9335 40.9681 21.9011 40.9744 20.8479C40.9808 19.7948 40.755 18.7583 40.32 17.8436C39.8849 16.929 39.2561 16.1686 38.4972 15.6395C37.7383 15.1105 36.8764 14.8317 35.9987 14.8313ZM25.0903 21.2473H23.6188V23.0132H22.0749V21.2473H20.6032V19.3947H22.0744V17.6293H23.6182V19.3947H25.0904V21.2473H25.0903ZM34.4163 21.6654C34.2431 21.6657 34.0737 21.6042 33.9295 21.489C33.7854 21.3737 33.673 21.2096 33.6066 21.0177C33.5401 20.8257 33.5227 20.6144 33.5563 20.4105C33.59 20.2066 33.6733 20.0193 33.7957 19.8722C33.9181 19.7251 34.0741 19.6249 34.244 19.5843C34.4139 19.5436 34.59 19.5644 34.75 19.6438C34.9101 19.7233 35.0469 19.858 35.1432 20.0308C35.2394 20.2036 35.2908 20.4068 35.2908 20.6147C35.2908 20.8932 35.1986 21.1604 35.0346 21.3574C34.8705 21.5544 34.6479 21.6652 34.4158 21.6654H34.4163ZM36.4144 24.0632C36.2412 24.0634 36.0718 24.0019 35.9278 23.8865C35.7837 23.7711 35.6714 23.607 35.605 23.415C35.5387 23.223 35.5213 23.0116 35.555 22.8078C35.5888 22.6039 35.6722 22.4166 35.7947 22.2696C35.9172 22.1226 36.0732 22.0225 36.2431 21.982C36.413 21.9415 36.5891 21.9623 36.7491 22.0419C36.9091 22.1215 37.0459 22.2563 37.1421 22.4291C37.2382 22.602 37.2895 22.8052 37.2894 23.0131C37.2893 23.2916 37.197 23.5587 37.0328 23.7556C36.8686 23.9525 36.646 24.0631 36.4139 24.0631L36.4144 24.0632ZM36.4144 19.2669C36.2413 19.2669 36.072 19.2052 35.928 19.0898C35.784 18.9743 35.6718 18.8102 35.6055 18.6182C35.5392 18.4263 35.5219 18.215 35.5557 18.0112C35.5895 17.8074 35.6728 17.6201 35.7953 17.4732C35.9177 17.3263 36.0738 17.2262 36.2436 17.1856C36.4135 17.1451 36.5895 17.1659 36.7495 17.2454C36.9095 17.325 37.0462 17.4596 37.1425 17.6324C37.2387 17.8052 37.29 18.0084 37.29 18.2162C37.2901 18.3543 37.2675 18.491 37.2235 18.6186C37.1795 18.7462 37.115 18.8622 37.0336 18.9598C36.9522 19.0575 36.8556 19.1349 36.7493 19.1877C36.6429 19.2405 36.529 19.2677 36.4139 19.2676L36.4144 19.2669ZM38.4126 21.6647C38.2395 21.6647 38.0702 21.6031 37.9262 21.4876C37.7822 21.3721 37.67 21.208 37.6037 21.016C37.5375 20.824 37.5201 20.6128 37.5539 20.409C37.5877 20.2052 37.6711 20.0179 37.7936 19.871C37.916 19.7241 38.072 19.624 38.2419 19.5835C38.4117 19.5429 38.5878 19.5637 38.7478 19.6433C38.9077 19.7228 39.0445 19.8575 39.1407 20.0303C39.2369 20.203 39.2883 20.4062 39.2883 20.614C39.2883 20.752 39.2657 20.8887 39.2218 21.0163C39.1778 21.1438 39.1133 21.2597 39.032 21.3574C38.9507 21.455 38.8541 21.5325 38.7479 21.5853C38.6416 21.6381 38.5277 21.6653 38.4127 21.6653L38.4126 21.6647ZM29.7219 1.1127H30.6791C30.8738 1.73204 30.9311 2.30368 30.8506 2.82569C30.6532 4.13772 29.6762 4.89798 28.7295 5.63303C27.6736 6.45481 26.6768 7.23159 26.7533 8.69186C26.8361 10.268 27.6521 11.0878 28.5177 11.9558C29.0393 12.4798 29.5918 13.0349 29.9513 13.7727H28.8674C28.6126 13.4319 28.2967 13.1111 27.952 12.7676C27.0285 11.8413 25.982 10.788 25.875 8.75866C25.7648 6.68051 27.0881 5.65231 28.2515 4.74516C29.0757 4.10403 29.8537 3.49465 29.9855 2.63462C30.0528 2.20454 29.9656 1.70157 29.7219 1.1127Z" fill="white"/>
</svg>
